<mxfile host="app.diagrams.net" modified="2023-11-28T09:20:47.769Z" agent="Mozilla/5.0 (Windows NT 10.0; Win64; x64) AppleWebKit/537.36 (KHTML, like Gecko) Chrome/119.0.0.0 Safari/537.36" etag="i-L67i-REGEjfnVuN_CL" version="22.1.4" type="github">
  <diagram name="페이지-1" id="d6vBU8dQ3OIi_ZeA8_BH">
    <mxGraphModel dx="1687" dy="882" grid="1" gridSize="10" guides="1" tooltips="1" connect="1" arrows="1" fold="1" page="1" pageScale="1" pageWidth="827" pageHeight="1169" math="0" shadow="0">
      <root>
        <mxCell id="0" />
        <mxCell id="1" parent="0" />
        <mxCell id="alfVSQqw5zvKO4nv5Tz3-42" value="CLIENT" style="swimlane;fontStyle=0;childLayout=stackLayout;horizontal=1;startSize=26;horizontalStack=0;resizeParent=1;resizeParentMax=0;resizeLast=0;collapsible=1;marginBottom=0;align=center;fontSize=14;" parent="1" vertex="1">
          <mxGeometry x="70" y="350" width="210" height="90" as="geometry" />
        </mxCell>
        <mxCell id="alfVSQqw5zvKO4nv5Tz3-44" value="PK | email | VARCHAR2(320)" style="text;strokeColor=none;fillColor=none;spacingLeft=4;spacingRight=4;overflow=hidden;rotatable=0;points=[[0,0.5],[1,0.5]];portConstraint=eastwest;fontSize=12;whiteSpace=wrap;html=1;" parent="alfVSQqw5zvKO4nv5Tz3-42" vertex="1">
          <mxGeometry y="26" width="210" height="30" as="geometry" />
        </mxCell>
        <mxCell id="QD3MnkhuZayKxs5UsDuF-3" value="name | VARCHAR2(20)" style="text;strokeColor=none;fillColor=none;spacingLeft=4;spacingRight=4;overflow=hidden;rotatable=0;points=[[0,0.5],[1,0.5]];portConstraint=eastwest;fontSize=12;whiteSpace=wrap;html=1;" parent="alfVSQqw5zvKO4nv5Tz3-42" vertex="1">
          <mxGeometry y="56" width="210" height="34" as="geometry" />
        </mxCell>
        <mxCell id="alfVSQqw5zvKO4nv5Tz3-58" value="ARTICLE" style="swimlane;fontStyle=0;childLayout=stackLayout;horizontal=1;startSize=26;horizontalStack=0;resizeParent=1;resizeParentMax=0;resizeLast=0;collapsible=1;marginBottom=0;align=center;fontSize=14;" parent="1" vertex="1">
          <mxGeometry x="360" y="160" width="190" height="370" as="geometry" />
        </mxCell>
        <mxCell id="alfVSQqw5zvKO4nv5Tz3-60" value="PK | article_id | NUMBER | AUTO" style="text;strokeColor=none;fillColor=none;spacingLeft=4;spacingRight=4;overflow=hidden;rotatable=0;points=[[0,0.5],[1,0.5]];portConstraint=eastwest;fontSize=12;whiteSpace=wrap;html=1;" parent="alfVSQqw5zvKO4nv5Tz3-58" vertex="1">
          <mxGeometry y="26" width="190" height="30" as="geometry" />
        </mxCell>
        <mxCell id="alfVSQqw5zvKO4nv5Tz3-59" value="email | VARCHAR(320)" style="text;strokeColor=none;fillColor=none;spacingLeft=4;spacingRight=4;overflow=hidden;rotatable=0;points=[[0,0.5],[1,0.5]];portConstraint=eastwest;fontSize=12;whiteSpace=wrap;html=1;" parent="alfVSQqw5zvKO4nv5Tz3-58" vertex="1">
          <mxGeometry y="56" width="190" height="33" as="geometry" />
        </mxCell>
        <mxCell id="uUUG_a216R064YyXESs9-3" value="thumbnail_path | VARCHAR(50)" style="text;strokeColor=none;fillColor=none;spacingLeft=4;spacingRight=4;overflow=hidden;rotatable=0;points=[[0,0.5],[1,0.5]];portConstraint=eastwest;fontSize=12;whiteSpace=wrap;html=1;" parent="alfVSQqw5zvKO4nv5Tz3-58" vertex="1">
          <mxGeometry y="89" width="190" height="34" as="geometry" />
        </mxCell>
        <mxCell id="alfVSQqw5zvKO4nv5Tz3-61" value="title | VARCHAR2(50)" style="text;strokeColor=none;fillColor=none;spacingLeft=4;spacingRight=4;overflow=hidden;rotatable=0;points=[[0,0.5],[1,0.5]];portConstraint=eastwest;fontSize=12;whiteSpace=wrap;html=1;" parent="alfVSQqw5zvKO4nv5Tz3-58" vertex="1">
          <mxGeometry y="123" width="190" height="37" as="geometry" />
        </mxCell>
        <mxCell id="alfVSQqw5zvKO4nv5Tz3-62" value="&lt;br&gt;content | VARCHAR2(4000)" style="text;strokeColor=none;fillColor=none;spacingLeft=4;spacingRight=4;overflow=hidden;rotatable=0;points=[[0,0.5],[1,0.5]];portConstraint=eastwest;fontSize=12;whiteSpace=wrap;html=1;" parent="alfVSQqw5zvKO4nv5Tz3-58" vertex="1">
          <mxGeometry y="160" width="190" height="44" as="geometry" />
        </mxCell>
        <mxCell id="QD3MnkhuZayKxs5UsDuF-1" value="views | NUMBER" style="text;strokeColor=none;fillColor=none;spacingLeft=4;spacingRight=4;overflow=hidden;rotatable=0;points=[[0,0.5],[1,0.5]];portConstraint=eastwest;fontSize=12;whiteSpace=wrap;html=1;" parent="alfVSQqw5zvKO4nv5Tz3-58" vertex="1">
          <mxGeometry y="204" width="190" height="34" as="geometry" />
        </mxCell>
        <mxCell id="uUUG_a216R064YyXESs9-4" value="likes | NUMBER" style="text;strokeColor=none;fillColor=none;spacingLeft=4;spacingRight=4;overflow=hidden;rotatable=0;points=[[0,0.5],[1,0.5]];portConstraint=eastwest;fontSize=12;whiteSpace=wrap;html=1;" parent="alfVSQqw5zvKO4nv5Tz3-58" vertex="1">
          <mxGeometry y="238" width="190" height="34" as="geometry" />
        </mxCell>
        <mxCell id="uUUG_a216R064YyXESs9-13" value="dislikes | NUMBER" style="text;strokeColor=none;fillColor=none;spacingLeft=4;spacingRight=4;overflow=hidden;rotatable=0;points=[[0,0.5],[1,0.5]];portConstraint=eastwest;fontSize=12;whiteSpace=wrap;html=1;" parent="alfVSQqw5zvKO4nv5Tz3-58" vertex="1">
          <mxGeometry y="272" width="190" height="34" as="geometry" />
        </mxCell>
        <mxCell id="uUUG_a216R064YyXESs9-2" value="recorded_time&amp;nbsp;| DATE" style="text;strokeColor=none;fillColor=none;spacingLeft=4;spacingRight=4;overflow=hidden;rotatable=0;points=[[0,0.5],[1,0.5]];portConstraint=eastwest;fontSize=12;whiteSpace=wrap;html=1;" parent="alfVSQqw5zvKO4nv5Tz3-58" vertex="1">
          <mxGeometry y="306" width="190" height="34" as="geometry" />
        </mxCell>
        <mxCell id="uUUG_a216R064YyXESs9-14" value="modified | VARCHAR2(1)" style="text;strokeColor=none;fillColor=none;spacingLeft=4;spacingRight=4;overflow=hidden;rotatable=0;points=[[0,0.5],[1,0.5]];portConstraint=eastwest;fontSize=12;whiteSpace=wrap;html=1;" parent="alfVSQqw5zvKO4nv5Tz3-58" vertex="1">
          <mxGeometry y="340" width="190" height="30" as="geometry" />
        </mxCell>
        <mxCell id="alfVSQqw5zvKO4nv5Tz3-78" value="MAJOR" style="swimlane;fontStyle=0;childLayout=stackLayout;horizontal=1;startSize=26;horizontalStack=0;resizeParent=1;resizeParentMax=0;resizeLast=0;collapsible=1;marginBottom=0;align=center;fontSize=14;" parent="1" vertex="1">
          <mxGeometry x="70" y="29" width="230" height="133" as="geometry" />
        </mxCell>
        <mxCell id="QD3MnkhuZayKxs5UsDuF-19" value="PK | major_id | NUMBER" style="text;strokeColor=none;fillColor=none;spacingLeft=4;spacingRight=4;overflow=hidden;rotatable=0;points=[[0,0.5],[1,0.5]];portConstraint=eastwest;fontSize=12;whiteSpace=wrap;html=1;" parent="alfVSQqw5zvKO4nv5Tz3-78" vertex="1">
          <mxGeometry y="26" width="230" height="33" as="geometry" />
        </mxCell>
        <mxCell id="alfVSQqw5zvKO4nv5Tz3-81" value="email&amp;nbsp; | VARCHAR2(320)" style="text;strokeColor=none;fillColor=none;spacingLeft=4;spacingRight=4;overflow=hidden;rotatable=0;points=[[0,0.5],[1,0.5]];portConstraint=eastwest;fontSize=12;whiteSpace=wrap;html=1;" parent="alfVSQqw5zvKO4nv5Tz3-78" vertex="1">
          <mxGeometry y="59" width="230" height="33" as="geometry" />
        </mxCell>
        <mxCell id="alfVSQqw5zvKO4nv5Tz3-80" value="major | VARCHAR2(30)" style="text;strokeColor=none;fillColor=none;spacingLeft=4;spacingRight=4;overflow=hidden;rotatable=0;points=[[0,0.5],[1,0.5]];portConstraint=eastwest;fontSize=12;whiteSpace=wrap;html=1;" parent="alfVSQqw5zvKO4nv5Tz3-78" vertex="1">
          <mxGeometry y="92" width="230" height="41" as="geometry" />
        </mxCell>
        <mxCell id="sFbNHhDB6Lq2KN_EqUX_-7" value="&lt;h1&gt;3정규화&lt;/h1&gt;" style="text;html=1;strokeColor=none;fillColor=none;spacing=5;spacingTop=-20;whiteSpace=wrap;overflow=hidden;rounded=0;" parent="1" vertex="1">
          <mxGeometry x="310" y="10" width="130" height="66" as="geometry" />
        </mxCell>
        <mxCell id="sFbNHhDB6Lq2KN_EqUX_-8" value="&lt;h1&gt;2정규화&lt;/h1&gt;&lt;div&gt;부분 종속성인&amp;nbsp;&lt;/div&gt;" style="text;html=1;strokeColor=none;fillColor=none;spacing=5;spacingTop=-20;whiteSpace=wrap;overflow=hidden;rounded=0;" parent="1" vertex="1">
          <mxGeometry x="590" y="140" width="140" height="50" as="geometry" />
        </mxCell>
        <mxCell id="QD3MnkhuZayKxs5UsDuF-7" value="DATA" style="swimlane;fontStyle=0;childLayout=stackLayout;horizontal=1;startSize=26;horizontalStack=0;resizeParent=1;resizeParentMax=0;resizeLast=0;collapsible=1;marginBottom=0;align=center;fontSize=14;" parent="1" vertex="1">
          <mxGeometry x="720" y="210" width="230" height="160" as="geometry" />
        </mxCell>
        <mxCell id="QD3MnkhuZayKxs5UsDuF-10" value="&amp;nbsp;PK | data_id | NUMBER | AUTO" style="text;whiteSpace=wrap;html=1;" parent="QD3MnkhuZayKxs5UsDuF-7" vertex="1">
          <mxGeometry y="26" width="230" height="40" as="geometry" />
        </mxCell>
        <mxCell id="QD3MnkhuZayKxs5UsDuF-8" value="article_id | NUMBER" style="text;strokeColor=none;fillColor=none;spacingLeft=4;spacingRight=4;overflow=hidden;rotatable=0;points=[[0,0.5],[1,0.5]];portConstraint=eastwest;fontSize=12;whiteSpace=wrap;html=1;" parent="QD3MnkhuZayKxs5UsDuF-7" vertex="1">
          <mxGeometry y="66" width="230" height="34" as="geometry" />
        </mxCell>
        <mxCell id="QD3MnkhuZayKxs5UsDuF-11" value="&lt;br&gt;&lt;span style=&quot;color: rgb(0, 0, 0); font-family: Helvetica; font-size: 12px; font-style: normal; font-variant-ligatures: normal; font-variant-caps: normal; font-weight: 400; letter-spacing: normal; orphans: 2; text-align: left; text-indent: 0px; text-transform: none; widows: 2; word-spacing: 0px; -webkit-text-stroke-width: 0px; background-color: rgb(251, 251, 251); text-decoration-thickness: initial; text-decoration-style: initial; text-decoration-color: initial; float: none; display: inline !important;&quot;&gt;data_path | VARCHAR2(50)&lt;/span&gt;" style="text;whiteSpace=wrap;html=1;" parent="QD3MnkhuZayKxs5UsDuF-7" vertex="1">
          <mxGeometry y="100" width="230" height="60" as="geometry" />
        </mxCell>
        <mxCell id="QD3MnkhuZayKxs5UsDuF-12" value="" style="endArrow=none;html=1;rounded=0;entryX=0;entryY=0.5;entryDx=0;entryDy=0;exitX=1;exitY=0.5;exitDx=0;exitDy=0;" parent="1" source="alfVSQqw5zvKO4nv5Tz3-61" target="QD3MnkhuZayKxs5UsDuF-7" edge="1">
          <mxGeometry width="50" height="50" relative="1" as="geometry">
            <mxPoint x="280" y="460" as="sourcePoint" />
            <mxPoint x="330" y="410" as="targetPoint" />
          </mxGeometry>
        </mxCell>
        <mxCell id="QD3MnkhuZayKxs5UsDuF-15" value="UNIVERSITY" style="swimlane;fontStyle=0;childLayout=stackLayout;horizontal=1;startSize=26;horizontalStack=0;resizeParent=1;resizeParentMax=0;resizeLast=0;collapsible=1;marginBottom=0;align=center;fontSize=14;" parent="1" vertex="1">
          <mxGeometry x="414" y="30" width="230" height="93" as="geometry" />
        </mxCell>
        <mxCell id="QD3MnkhuZayKxs5UsDuF-17" value="major | VARCHAR2(30)" style="text;strokeColor=none;fillColor=none;spacingLeft=4;spacingRight=4;overflow=hidden;rotatable=0;points=[[0,0.5],[1,0.5]];portConstraint=eastwest;fontSize=12;whiteSpace=wrap;html=1;" parent="QD3MnkhuZayKxs5UsDuF-15" vertex="1">
          <mxGeometry y="26" width="230" height="33" as="geometry" />
        </mxCell>
        <mxCell id="QD3MnkhuZayKxs5UsDuF-16" value="university | VARCHAR2(30)" style="text;strokeColor=none;fillColor=none;spacingLeft=4;spacingRight=4;overflow=hidden;rotatable=0;points=[[0,0.5],[1,0.5]];portConstraint=eastwest;fontSize=12;whiteSpace=wrap;html=1;" parent="QD3MnkhuZayKxs5UsDuF-15" vertex="1">
          <mxGeometry y="59" width="230" height="34" as="geometry" />
        </mxCell>
        <mxCell id="QD3MnkhuZayKxs5UsDuF-18" value="" style="endArrow=none;html=1;rounded=0;entryX=0.75;entryY=1;entryDx=0;entryDy=0;exitX=-0.049;exitY=1.03;exitDx=0;exitDy=0;exitPerimeter=0;" parent="1" source="sFbNHhDB6Lq2KN_EqUX_-7" target="sFbNHhDB6Lq2KN_EqUX_-7" edge="1">
          <mxGeometry width="50" height="50" relative="1" as="geometry">
            <mxPoint x="250" y="260" as="sourcePoint" />
            <mxPoint x="300" y="210" as="targetPoint" />
          </mxGeometry>
        </mxCell>
        <mxCell id="uUUG_a216R064YyXESs9-11" value="" style="endArrow=classic;html=1;rounded=0;entryX=1;entryY=0.5;entryDx=0;entryDy=0;exitX=0;exitY=0.5;exitDx=0;exitDy=0;" parent="1" source="alfVSQqw5zvKO4nv5Tz3-62" target="alfVSQqw5zvKO4nv5Tz3-44" edge="1">
          <mxGeometry width="50" height="50" relative="1" as="geometry">
            <mxPoint x="360" y="330" as="sourcePoint" />
            <mxPoint x="430" y="260" as="targetPoint" />
          </mxGeometry>
        </mxCell>
        <mxCell id="uUUG_a216R064YyXESs9-12" value="" style="endArrow=classic;html=1;rounded=0;entryX=0.5;entryY=0;entryDx=0;entryDy=0;" parent="1" target="alfVSQqw5zvKO4nv5Tz3-42" edge="1">
          <mxGeometry width="50" height="50" relative="1" as="geometry">
            <mxPoint x="175" y="170" as="sourcePoint" />
            <mxPoint x="430" y="260" as="targetPoint" />
          </mxGeometry>
        </mxCell>
        <mxCell id="uUUG_a216R064YyXESs9-15" value="COMMENTS" style="swimlane;fontStyle=0;childLayout=stackLayout;horizontal=1;startSize=26;horizontalStack=0;resizeParent=1;resizeParentMax=0;resizeLast=0;collapsible=1;marginBottom=0;align=center;fontSize=14;" parent="1" vertex="1">
          <mxGeometry x="720" y="560" width="230" height="426" as="geometry" />
        </mxCell>
        <mxCell id="uUUG_a216R064YyXESs9-16" value="PK | comment_id" style="text;whiteSpace=wrap;html=1;" parent="uUUG_a216R064YyXESs9-15" vertex="1">
          <mxGeometry y="26" width="230" height="36" as="geometry" />
        </mxCell>
        <mxCell id="uUUG_a216R064YyXESs9-17" value="article_id | NUMBER" style="text;strokeColor=none;fillColor=none;spacingLeft=4;spacingRight=4;overflow=hidden;rotatable=0;points=[[0,0.5],[1,0.5]];portConstraint=eastwest;fontSize=12;whiteSpace=wrap;html=1;" parent="uUUG_a216R064YyXESs9-15" vertex="1">
          <mxGeometry y="62" width="230" height="38" as="geometry" />
        </mxCell>
        <mxCell id="uUUG_a216R064YyXESs9-18" value="&lt;br&gt;&lt;span style=&quot;color: rgb(0, 0, 0); font-family: Helvetica; font-size: 12px; font-style: normal; font-variant-ligatures: normal; font-variant-caps: normal; font-weight: 400; letter-spacing: normal; orphans: 2; text-align: left; text-indent: 0px; text-transform: none; widows: 2; word-spacing: 0px; -webkit-text-stroke-width: 0px; background-color: rgb(251, 251, 251); text-decoration-thickness: initial; text-decoration-style: initial; text-decoration-color: initial; float: none; display: inline !important;&quot;&gt;email | VARCHAR2(320)&lt;/span&gt;" style="text;whiteSpace=wrap;html=1;" parent="uUUG_a216R064YyXESs9-15" vertex="1">
          <mxGeometry y="100" width="230" height="56" as="geometry" />
        </mxCell>
        <mxCell id="uUUG_a216R064YyXESs9-20" value="&lt;br&gt;&lt;span style=&quot;color: rgb(0, 0, 0); font-family: Helvetica; font-size: 12px; font-style: normal; font-variant-ligatures: normal; font-variant-caps: normal; font-weight: 400; letter-spacing: normal; orphans: 2; text-align: left; text-indent: 0px; text-transform: none; widows: 2; word-spacing: 0px; -webkit-text-stroke-width: 0px; background-color: rgb(251, 251, 251); text-decoration-thickness: initial; text-decoration-style: initial; text-decoration-color: initial; float: none; display: inline !important;&quot;&gt;comment | VARCHAR2(500)&lt;/span&gt;" style="text;whiteSpace=wrap;html=1;" parent="uUUG_a216R064YyXESs9-15" vertex="1">
          <mxGeometry y="156" width="230" height="56" as="geometry" />
        </mxCell>
        <mxCell id="uUUG_a216R064YyXESs9-21" value="&lt;br&gt;&lt;span style=&quot;color: rgb(0, 0, 0); font-family: Helvetica; font-size: 12px; font-style: normal; font-variant-ligatures: normal; font-variant-caps: normal; font-weight: 400; letter-spacing: normal; orphans: 2; text-align: left; text-indent: 0px; text-transform: none; widows: 2; word-spacing: 0px; -webkit-text-stroke-width: 0px; background-color: rgb(251, 251, 251); text-decoration-thickness: initial; text-decoration-style: initial; text-decoration-color: initial; float: none; display: inline !important;&quot;&gt;recorded_time | date&lt;/span&gt;" style="text;whiteSpace=wrap;html=1;" parent="uUUG_a216R064YyXESs9-15" vertex="1">
          <mxGeometry y="212" width="230" height="56" as="geometry" />
        </mxCell>
        <mxCell id="uUUG_a216R064YyXESs9-22" value="&lt;br&gt;&lt;span style=&quot;color: rgb(0, 0, 0); font-family: Helvetica; font-size: 12px; font-style: normal; font-variant-ligatures: normal; font-variant-caps: normal; font-weight: 400; letter-spacing: normal; orphans: 2; text-align: left; text-indent: 0px; text-transform: none; widows: 2; word-spacing: 0px; -webkit-text-stroke-width: 0px; background-color: rgb(251, 251, 251); text-decoration-thickness: initial; text-decoration-style: initial; text-decoration-color: initial; float: none; display: inline !important;&quot;&gt;modified | VARCHAR2(1)&lt;/span&gt;" style="text;whiteSpace=wrap;html=1;" parent="uUUG_a216R064YyXESs9-15" vertex="1">
          <mxGeometry y="268" width="230" height="56" as="geometry" />
        </mxCell>
        <mxCell id="uUUG_a216R064YyXESs9-25" value="like | NUMBER" style="text;strokeColor=none;fillColor=none;spacingLeft=4;spacingRight=4;overflow=hidden;rotatable=0;points=[[0,0.5],[1,0.5]];portConstraint=eastwest;fontSize=12;whiteSpace=wrap;html=1;" parent="uUUG_a216R064YyXESs9-15" vertex="1">
          <mxGeometry y="324" width="230" height="34" as="geometry" />
        </mxCell>
        <mxCell id="uUUG_a216R064YyXESs9-26" value="dislike | NUMBER" style="text;strokeColor=none;fillColor=none;spacingLeft=4;spacingRight=4;overflow=hidden;rotatable=0;points=[[0,0.5],[1,0.5]];portConstraint=eastwest;fontSize=12;whiteSpace=wrap;html=1;" parent="uUUG_a216R064YyXESs9-15" vertex="1">
          <mxGeometry y="358" width="230" height="34" as="geometry" />
        </mxCell>
        <mxCell id="uUUG_a216R064YyXESs9-32" value="img_path | VARCHAR(50)" style="text;strokeColor=none;fillColor=none;spacingLeft=4;spacingRight=4;overflow=hidden;rotatable=0;points=[[0,0.5],[1,0.5]];portConstraint=eastwest;fontSize=12;whiteSpace=wrap;html=1;" parent="uUUG_a216R064YyXESs9-15" vertex="1">
          <mxGeometry y="392" width="230" height="34" as="geometry" />
        </mxCell>
        <mxCell id="uUUG_a216R064YyXESs9-19" value="" style="endArrow=none;html=1;rounded=0;entryX=0.996;entryY=0.224;entryDx=0;entryDy=0;entryPerimeter=0;exitX=0;exitY=0.5;exitDx=0;exitDy=0;" parent="1" source="uUUG_a216R064YyXESs9-17" target="uUUG_a216R064YyXESs9-13" edge="1">
          <mxGeometry width="50" height="50" relative="1" as="geometry">
            <mxPoint x="490" y="490" as="sourcePoint" />
            <mxPoint x="540" y="440" as="targetPoint" />
          </mxGeometry>
        </mxCell>
        <mxCell id="ZpUzJbtdn7AtXSUnfafU-1" value="ARTICLE_REVIEW_CHANCE" style="swimlane;fontStyle=0;childLayout=stackLayout;horizontal=1;startSize=26;horizontalStack=0;resizeParent=1;resizeParentMax=0;resizeLast=0;collapsible=1;marginBottom=0;align=center;fontSize=14;" parent="1" vertex="1">
          <mxGeometry x="90" y="550" width="230" height="100" as="geometry" />
        </mxCell>
        <mxCell id="ZpUzJbtdn7AtXSUnfafU-2" value="&amp;nbsp;PK | email" style="text;whiteSpace=wrap;html=1;" parent="ZpUzJbtdn7AtXSUnfafU-1" vertex="1">
          <mxGeometry y="26" width="230" height="40" as="geometry" />
        </mxCell>
        <mxCell id="ZpUzJbtdn7AtXSUnfafU-3" value="PK | article_id | NUMBER" style="text;strokeColor=none;fillColor=none;spacingLeft=4;spacingRight=4;overflow=hidden;rotatable=0;points=[[0,0.5],[1,0.5]];portConstraint=eastwest;fontSize=12;whiteSpace=wrap;html=1;" parent="ZpUzJbtdn7AtXSUnfafU-1" vertex="1">
          <mxGeometry y="66" width="230" height="34" as="geometry" />
        </mxCell>
        <mxCell id="ZpUzJbtdn7AtXSUnfafU-9" value="COMMENT_REVIEW_CHANCE" style="swimlane;fontStyle=0;childLayout=stackLayout;horizontal=1;startSize=26;horizontalStack=0;resizeParent=1;resizeParentMax=0;resizeLast=0;collapsible=1;marginBottom=0;align=center;fontSize=14;" parent="1" vertex="1">
          <mxGeometry x="130" y="720" width="230" height="100" as="geometry" />
        </mxCell>
        <mxCell id="ZpUzJbtdn7AtXSUnfafU-10" value="&amp;nbsp;PK | email" style="text;whiteSpace=wrap;html=1;" parent="ZpUzJbtdn7AtXSUnfafU-9" vertex="1">
          <mxGeometry y="26" width="230" height="40" as="geometry" />
        </mxCell>
        <mxCell id="ZpUzJbtdn7AtXSUnfafU-11" value="PK | comment_id | NUMBER" style="text;strokeColor=none;fillColor=none;spacingLeft=4;spacingRight=4;overflow=hidden;rotatable=0;points=[[0,0.5],[1,0.5]];portConstraint=eastwest;fontSize=12;whiteSpace=wrap;html=1;" parent="ZpUzJbtdn7AtXSUnfafU-9" vertex="1">
          <mxGeometry y="66" width="230" height="34" as="geometry" />
        </mxCell>
        <mxCell id="ZpUzJbtdn7AtXSUnfafU-13" value="" style="endArrow=classic;html=1;rounded=0;exitX=-0.019;exitY=-0.176;exitDx=0;exitDy=0;exitPerimeter=0;entryX=0.5;entryY=0;entryDx=0;entryDy=0;" parent="1" source="uUUG_a216R064YyXESs9-13" target="ZpUzJbtdn7AtXSUnfafU-1" edge="1">
          <mxGeometry width="50" height="50" relative="1" as="geometry">
            <mxPoint x="310" y="640" as="sourcePoint" />
            <mxPoint x="360" y="590" as="targetPoint" />
          </mxGeometry>
        </mxCell>
        <mxCell id="ZpUzJbtdn7AtXSUnfafU-15" value="" style="endArrow=classic;html=1;rounded=0;entryX=0.5;entryY=0;entryDx=0;entryDy=0;" parent="1" source="uUUG_a216R064YyXESs9-14" target="ZpUzJbtdn7AtXSUnfafU-9" edge="1">
          <mxGeometry width="50" height="50" relative="1" as="geometry">
            <mxPoint x="310" y="640" as="sourcePoint" />
            <mxPoint x="360" y="590" as="targetPoint" />
          </mxGeometry>
        </mxCell>
      </root>
    </mxGraphModel>
  </diagram>
</mxfile>
